<mxfile host="app.diagrams.net" modified="2023-11-04T07:23:38.657Z" agent="Mozilla/5.0 (Windows NT 10.0; Win64; x64; rv:109.0) Gecko/20100101 Firefox/119.0" version="22.0.8" etag="wCuLSX-JO4rYFwFj3xbF" type="github">
  <diagram name="Page-1" id="BhxYhTr7lZUAY-WvTw9y">
    <mxGraphModel>
      <root>
        <mxCell id="0" />
        <mxCell id="1" parent="0" />
      </root>
    </mxGraphModel>
  </diagram>
</mxfile>
